<svg xmlns="http://www.w3.org/2000/svg" width="512" height="512" viewBox="0 0 512 512" fill="none">
  <defs>
    <linearGradient id="g" x1="64" y1="64" x2="448" y2="448" gradientUnits="userSpaceOnUse">
      <stop stop-color="#111827"/>
      <stop offset="0.55" stop-color="#312E81"/>
      <stop offset="1" stop-color="#4F46E5"/>
    </linearGradient>
  </defs>
  <rect x="32" y="32" width="448" height="448" rx="120" fill="url(#g)"/>
  <path d="M142 176C142 154.909 159.909 137 181 137H331C352.091 137 370 154.909 370 176V267C370 288.091 352.091 306 331 306H250.949L194.311 352.637C186.365 359.18 174 353.526 174 343.197V306H181C159.909 306 142 288.091 142 267V176Z" fill="white" fill-opacity="0.96"/>
  <path d="M202 189H309" stroke="#4F46E5" stroke-width="22" stroke-linecap="round"/>
  <path d="M202 235H283" stroke="#7C3AED" stroke-width="22" stroke-linecap="round"/>
  <circle cx="321" cy="235" r="11" fill="#7C3AED"/>
</svg>
